<?xml version="1.0" standalone="no"?><!DOCTYPE svg PUBLIC "-//W3C//DTD SVG 1.1//EN" "http://www.w3.org/Graphics/SVG/1.1/DTD/svg11.dtd"><svg class="icon" height="512" viewBox="0 0 1024 1024" version="1.1" xmlns="http://www.w3.org/2000/svg"><path d="M814.353067 29.2864H229.1712A175.581867 175.581867 0 0 0 53.6576 204.8v585.1136a175.581867 175.581867 0 0 0 175.5136 175.581867h324.266667V602.794667H431.5136V461.482667h121.924267V357.1712c0-120.695467 74.410667-186.504533 182.272-186.504533 51.2 0 95.709867 3.6864 108.544 5.461333V302.421333l-74.410667 0.546134c-59.118933 0-70.109867 27.4432-70.109867 68.266666V461.482667h139.605334l-18.295467 141.380266H699.733333v362.7008h114.619734A175.581867 175.581867 0 0 0 989.866667 789.845333V204.8A175.581867 175.581867 0 0 0 814.353067 29.2864z" /></svg>